<svg width="20" height="20" viewBox="0 0 20 20" fill="none" xmlns="http://www.w3.org/2000/svg">
<path d="M8.95844 18.749H11.0584C11.8584 18.749 12.3751 18.1824 12.2251 17.4907L11.8834 15.9824H8.13344L7.79177 17.4907C7.64177 18.1407 8.20844 18.749 8.95844 18.749Z" stroke="#1C1C1C" stroke-width="1.25" stroke-linecap="round" stroke-linejoin="round"/>
<path d="M11.8836 15.9752L13.3253 14.6918C14.1336 13.9751 14.167 13.4751 13.5253 12.6667L10.9836 9.4418C10.4503 8.7668 9.57529 8.7668 9.04195 9.4418L6.50029 12.6667C5.85862 13.4751 5.85862 14.0001 6.70029 14.6918L8.14195 15.9752" stroke="#1C1C1C" stroke-width="1.25" stroke-linecap="round" stroke-linejoin="round"/>
<path d="M10.0088 9.26562V11.374" stroke="#1C1C1C" stroke-width="1.25" stroke-linecap="round" stroke-linejoin="round"/>
<path d="M9.29189 4.32488L8.64189 3.67485C8.25023 3.28319 8.25023 2.64989 8.64189 2.25823L9.29189 1.6082C9.68356 1.21654 10.3169 1.21654 10.7086 1.6082L11.3586 2.25823C11.7502 2.64989 11.7502 3.28319 11.3586 3.67485L10.7086 4.32488C10.3169 4.71654 9.68356 4.71654 9.29189 4.32488Z" stroke="#1C1C1C" stroke-width="1.25" stroke-linecap="round" stroke-linejoin="round"/>
<path d="M16.2085 8.17578H17.1252C17.6752 8.17578 18.1252 8.62579 18.1252 9.17579V10.0924C18.1252 10.6424 17.6752 11.0925 17.1252 11.0925H16.2085C15.6585 11.0925 15.2085 10.6424 15.2085 10.0924V9.17579C15.2085 8.62579 15.6585 8.17578 16.2085 8.17578Z" stroke="#1C1C1C" stroke-width="1.25" stroke-linecap="round" stroke-linejoin="round"/>
<path d="M3.79167 8.17578H2.875C2.325 8.17578 1.875 8.62579 1.875 9.17579V10.0924C1.875 10.6424 2.325 11.0925 2.875 11.0925H3.79167C4.34167 11.0925 4.79167 10.6424 4.79167 10.0924V9.17579C4.79167 8.62579 4.34167 8.17578 3.79167 8.17578Z" stroke="#1C1C1C" stroke-width="1.25" stroke-linecap="round" stroke-linejoin="round"/>
<path d="M15.4504 8.41666L11.0337 4" stroke="#1C1C1C" stroke-width="1.25" stroke-linecap="round" stroke-linejoin="round"/>
<path d="M4.55029 8.41666L8.96696 4" stroke="#1C1C1C" stroke-width="1.25" stroke-linecap="round" stroke-linejoin="round"/>
</svg>
